<svg width="429.99999999999994" height="429.99999999999994" fill="#ffffff"  xmlns="http://www.w3.org/2000/svg">

  <g id="svg_2">
   <path d="m216.166672,3.93267c-86.794998,0 -157.412991,70.612008 -157.412991,157.412972c0,58.216003 32.162975,111.344025 82.792004,138.207031l0,52.431c0,9.024994 7.315002,16.339996 16.339996,16.339996l116.561981,0c9.024994,0 16.339996,-7.309998 16.339996,-16.339996l0,-52.027985c50.622986,-27.561005 82.786011,-80.869049 82.786011,-138.610046c0,-86.79496 -70.612,-157.412972 -157.406998,-157.412972zm51.444992,271.115029c-5.790009,2.668976 -9.505005,8.463989 -9.505005,14.842957l0,45.753021l-83.87999,0l0,-46.297974c0,-6.45401 -3.806992,-12.310028 -9.705994,-14.929993c-44.397018,-19.734024 -73.085014,-64.120071 -73.085014,-113.070053c0,-68.776985 55.955009,-124.731998 124.732018,-124.731998s124.726974,55.955013 124.726974,124.731998c-0.001007,48.562988 -28.765991,93.195007 -73.28299,113.702042z" id="svg_3"/>
  </g>
  <g id="svg_4">
   <g id="svg_5">
    <path d="m263.220367,390.152374l-94.774063,0c-9.024994,0 -16.339996,7.315002 -16.339996,16.339996c0,9.024994 7.315002,16.339996 16.339996,16.339996l94.774063,0c9.024994,0 16.339996,-7.315002 16.339996,-16.339996c0.001007,-9.024994 -7.313995,-16.339996 -16.339996,-16.339996z" id="svg_6"/>
   </g>
  </g>
  <g id="svg_8">
   <g id="svg_7">
    <path d="m261.60498,132.152374l-94.774063,0c-9.024994,0 -16.339996,7.315002 -16.339996,16.339996c0,9.024994 7.315002,16.339996 16.339996,16.339996l94.774063,0c9.024994,0 16.339996,-7.315002 16.339996,-16.339996c0.001007,-9.024994 -7.313995,-16.339996 -16.339996,-16.339996z" id="svg_1"/>
   </g>
  </g>
  <g id="svg_11">
   <g transform="rotate(-63, 241.755, 192.954)" id="svg_10">
    <path d="m289.143402,176.613876l-94.774033,0c-9.024994,0 -16.339996,7.315002 -16.339996,16.339996c0,9.024994 7.315002,16.339996 16.339996,16.339996l94.774033,0c9.024994,0 16.339996,-7.315002 16.339996,-16.339996c0.001007,-9.024994 -7.313995,-16.339996 -16.339996,-16.339996z" id="svg_9"/>
   </g>
  </g>
  <g transform="rotate(60, 191.217, 193.492)" id="svg_14">
   <g id="svg_13">
    <path d="m238.60498,177.152374l-94.774063,0c-9.024994,0 -16.339996,7.315002 -16.339996,16.339996c0,9.024994 7.315002,16.339996 16.339996,16.339996l94.774063,0c9.024994,0 16.339996,-7.315002 16.339996,-16.339996c0.001007,-9.024994 -7.313995,-16.339996 -16.339996,-16.339996z" id="svg_12"/>
   </g>
  </g>
</svg>